<svg width="34" height="34" viewBox="0 0 34 34" fill="none" xmlns="http://www.w3.org/2000/svg">
<path fill-rule="evenodd" clip-rule="evenodd" d="M33.3207 17.3868C33.3221 16.2203 33.2187 15.0561 33.0116 13.9081H16.9958V20.4842H26.1456C25.9557 21.5233 25.5572 22.5132 24.9742 23.394C24.3912 24.2749 23.6358 25.0285 22.7535 25.6093V29.8759H28.2469C31.4613 26.9162 33.3159 22.5567 33.3159 17.3836L33.3207 17.3868Z" fill="#3E82F1"/>
<path fill-rule="evenodd" clip-rule="evenodd" d="M17.0009 34C21.591 34 25.4396 32.4785 28.252 29.8823L22.7586 25.6157C21.2355 26.6359 19.288 27.2397 17.0009 27.2397C12.5725 27.2397 8.82483 24.248 7.48911 20.2296H1.80829V24.6356C3.22342 27.4516 5.39367 29.8187 8.07656 31.4724C10.7595 33.126 13.8493 34.0012 17.0009 34Z" fill="#32A753"/>
<path fill-rule="evenodd" clip-rule="evenodd" d="M7.48897 20.2296C6.77786 18.1353 6.77786 15.8648 7.48897 13.7704V9.36446H1.80815C0.619191 11.7342 6.10352e-05 14.3488 6.10352e-05 17C6.10352e-05 19.6512 0.619191 22.2659 1.80815 24.6356L7.48897 20.2296Z" fill="#F9BB00"/>
<path fill-rule="evenodd" clip-rule="evenodd" d="M17.0011 6.76028C19.4979 6.76028 21.7385 7.61872 23.5003 9.30359L28.3755 4.42678C25.4318 1.68327 21.5832 1.17612e-06 17.0043 1.17612e-06C13.8527 -0.00117107 10.7628 0.87397 8.07992 2.52766C5.39703 4.18134 3.22678 6.54843 1.81165 9.36445L7.49246 13.7704C8.82818 9.75204 12.5759 6.76028 17.0043 6.76028H17.0011Z" fill="#E74133"/>
</svg>
