<svg width="225" height="203" viewBox="0 0 225 203" fill="none" xmlns="http://www.w3.org/2000/svg">
<path d="M85.5025 93.8959C77.9819 96.8646 59.8531 92.8271 47.5034 52.928C32.0662 3.0541 64.128 -2.28953 82.5339 4.24158C100.94 10.7727 127.658 39.8658 121.721 68.3652C119.939 73.5109 115.664 80.0024 112.814 64.8028C109.252 45.8032 133.595 2.46035 160.907 4.24158C188.219 6.0228 188.219 29.1786 186.438 41.0533C184.657 52.928 181.688 79.0525 159.126 85.5836C136.564 92.1147 152.167 75.49 165.657 71.9276C179.147 68.3652 210.187 58.2717 219.687 82.0211C229.187 105.771 216.125 127.145 199.5 133.083C182.875 139.02 140.126 136.645 136.564 112.895C137.158 110.521 141.67 108.502 154.97 119.427C171.594 133.083 182.282 171.675 163.282 184.144C144.283 196.612 121.127 184.144 115.783 149.707C110.44 115.27 121.127 120.02 123.502 126.551C125.877 133.083 127.658 166.926 82.5339 194.237C37.4098 221.549 28.5038 144.364 78.9714 117.645C82.3359 116.854 89.3025 117.052 90.2524 124.176C91.4399 133.083 74.2215 141.989 42.7535 136.645C11.2854 131.301 -9.49539 106.364 8.91046 85.5836C27.3163 64.8028 78.3777 61.2403 85.5025 93.8959Z" stroke="white" stroke-width="4" stroke-linecap="round" stroke-linejoin="round"/>
<path d="M132.317 83.1205C131.893 82.6667 131.444 82.2355 130.972 81.8285C126.185 77.8624 118.553 75.7953 112.388 77.3068C110.595 77.756 108.902 78.5156 107.392 79.5483C106.317 79.8363 105.276 80.2303 104.286 80.7239C92.3445 86.7701 90.0585 101.543 98.4294 111.297C106.061 120.179 120.006 120.489 129.062 113.403C131.197 111.706 132.977 109.634 134.307 107.299C140.869 99.9283 139.551 89.5413 132.317 83.1205Z" fill="#FFCC00"/>
</svg>
